<?xml version="1.0" encoding="UTF-8" standalone="no"?>
<!DOCTYPE svg PUBLIC "-//W3C//DTD SVG 1.1//EN"
 "http://www.w3.org/Graphics/SVG/1.1/DTD/svg11.dtd">
<!-- Generated by graphviz version 2.26.3 (20100126.1600)
 -->
<!-- Title: controllers_diagram Pages: 1 -->
<svg width="2266pt" height="1580pt"
 viewBox="0.00 0.00 2265.59 1579.70" xmlns="http://www.w3.org/2000/svg" xmlns:xlink="http://www.w3.org/1999/xlink">
<g id="graph1" class="graph" transform="scale(1 1) rotate(0) translate(4 1575.7)">
<title>controllers_diagram</title>
<polygon fill="white" stroke="white" points="-4,5 -4,-1575.7 2262.59,-1575.7 2262.59,5 -4,5"/>
<!-- _diagram_info -->
<g id="node1" class="node"><title>_diagram_info</title>
<text text-anchor="start" x="1538" y="-78.3" font-family="Times Roman,serif" font-size="13.00">Controllers diagram</text>
<text text-anchor="start" x="1538" y="-61.3" font-family="Times Roman,serif" font-size="13.00">Date: Nov 19 2013 &#45; 03:36</text>
<text text-anchor="start" x="1538" y="-44.3" font-family="Times Roman,serif" font-size="13.00">Migration version: 104</text>
<text text-anchor="start" x="1538" y="-27.3" font-family="Times Roman,serif" font-size="13.00">Generated by RailRoady 1.1.1</text>
<text text-anchor="start" x="1538" y="-10.3" font-family="Times Roman,serif" font-size="13.00">http://railroady.prestonlee.com</text>
</g>
<!-- AccountsController -->
<g id="node2" class="node"><title>AccountsController</title>
<ellipse fill="none" stroke="black" cx="844.15" cy="-1030.04" rx="104.151" ry="18.3848"/>
<text text-anchor="middle" x="844.15" y="-1026.44" font-family="Times Roman,serif" font-size="14.00">AccountsController</text>
</g>
<!-- Admin::BaseController -->
<g id="node3" class="node"><title>Admin::BaseController</title>
<ellipse fill="none" stroke="black" cx="1166.51" cy="-671.724" rx="120.915" ry="18.3848"/>
<text text-anchor="middle" x="1166.51" y="-668.124" font-family="Times Roman,serif" font-size="14.00">Admin::BaseController</text>
</g>
<!-- Admin::CacheController -->
<g id="node4" class="node"><title>Admin::CacheController</title>
<ellipse fill="none" stroke="black" cx="1153.93" cy="-158.5" rx="126.78" ry="18.3848"/>
<text text-anchor="middle" x="1153.93" y="-154.9" font-family="Times Roman,serif" font-size="14.00">Admin::CacheController</text>
</g>
<!-- Admin::BaseController&#45;&gt;Admin::CacheController -->
<g id="edge6" class="edge"><title>Admin::BaseController&#45;&gt;Admin::CacheController</title>
<path fill="none" stroke="black" d="M1170.96,-653.131C1179.53,-615.567 1197.51,-527.838 1197.27,-453.094 1196.94,-347.895 1169.75,-223.792 1158.61,-177.314"/>
</g>
<!-- Admin::CategoriesController -->
<g id="node5" class="node"><title>Admin::CategoriesController</title>
<ellipse fill="none" stroke="black" cx="1279.27" cy="-862.155" rx="149.907" ry="18.3848"/>
<text text-anchor="middle" x="1279.27" y="-858.555" font-family="Times Roman,serif" font-size="14.00">Admin::CategoriesController</text>
</g>
<!-- Admin::BaseController&#45;&gt;Admin::CategoriesController -->
<g id="edge8" class="edge"><title>Admin::BaseController&#45;&gt;Admin::CategoriesController</title>
<path fill="none" stroke="black" d="M1177.53,-690.33C1199.08,-726.736 1246.61,-807.007 1268.21,-843.473"/>
</g>
<!-- Admin::ContentController -->
<g id="node6" class="node"><title>Admin::ContentController</title>
<ellipse fill="none" stroke="black" cx="1487.22" cy="-727.972" rx="137.179" ry="18.3848"/>
<text text-anchor="middle" x="1487.22" y="-724.372" font-family="Times Roman,serif" font-size="14.00">Admin::ContentController</text>
</g>
<!-- Admin::BaseController&#45;&gt;Admin::ContentController -->
<g id="edge10" class="edge"><title>Admin::BaseController&#45;&gt;Admin::ContentController</title>
<path fill="none" stroke="black" d="M1246.2,-685.7C1294.06,-694.095 1354.89,-704.763 1403.46,-713.282"/>
</g>
<!-- Admin::DashboardController -->
<g id="node7" class="node"><title>Admin::DashboardController</title>
<ellipse fill="none" stroke="black" cx="751.053" cy="-497.549" rx="149.907" ry="18.3848"/>
<text text-anchor="middle" x="751.053" y="-493.949" font-family="Times Roman,serif" font-size="14.00">Admin::DashboardController</text>
</g>
<!-- Admin::BaseController&#45;&gt;Admin::DashboardController -->
<g id="edge12" class="edge"><title>Admin::BaseController&#45;&gt;Admin::DashboardController</title>
<path fill="none" stroke="black" d="M1124.77,-654.226C1045.45,-620.97 873.712,-548.972 793.693,-515.425"/>
</g>
<!-- Admin::FeedbackController -->
<g id="node8" class="node"><title>Admin::FeedbackController</title>
<ellipse fill="none" stroke="black" cx="532.581" cy="-177.797" rx="142.836" ry="18.3848"/>
<text text-anchor="middle" x="532.581" y="-174.197" font-family="Times Roman,serif" font-size="14.00">Admin::FeedbackController</text>
</g>
<!-- Admin::BaseController&#45;&gt;Admin::FeedbackController -->
<g id="edge14" class="edge"><title>Admin::BaseController&#45;&gt;Admin::FeedbackController</title>
<path fill="none" stroke="black" d="M1143.2,-653.559C1043.79,-576.109 655.919,-273.896 556.107,-196.127"/>
</g>
<!-- Admin::PagesController -->
<g id="node9" class="node"><title>Admin::PagesController</title>
<ellipse fill="none" stroke="black" cx="2130.59" cy="-220.205" rx="125.865" ry="18.3848"/>
<text text-anchor="middle" x="2130.59" y="-216.605" font-family="Times Roman,serif" font-size="14.00">Admin::PagesController</text>
</g>
<!-- Admin::BaseController&#45;&gt;Admin::PagesController -->
<g id="edge16" class="edge"><title>Admin::BaseController&#45;&gt;Admin::PagesController</title>
<path fill="none" stroke="black" d="M1204.3,-654.024C1358.44,-581.835 1938.66,-310.093 2092.8,-237.905"/>
</g>
<!-- Admin::PostTypesController -->
<g id="node10" class="node"><title>Admin::PostTypesController</title>
<ellipse fill="none" stroke="black" cx="871.638" cy="-165.339" rx="145.163" ry="18.3848"/>
<text text-anchor="middle" x="871.638" y="-161.739" font-family="Times Roman,serif" font-size="14.00">Admin::PostTypesController</text>
</g>
<!-- Admin::BaseController&#45;&gt;Admin::PostTypesController -->
<g id="edge18" class="edge"><title>Admin::BaseController&#45;&gt;Admin::PostTypesController</title>
<path fill="none" stroke="black" d="M1132.52,-653.828C1075.72,-621.917 962.548,-549.399 910.072,-453.062 860.534,-362.115 865.761,-231.777 869.752,-183.893"/>
</g>
<!-- Admin::ProfilesController -->
<g id="node11" class="node"><title>Admin::ProfilesController</title>
<ellipse fill="none" stroke="black" cx="1423.22" cy="-169.486" rx="132.936" ry="18.3848"/>
<text text-anchor="middle" x="1423.22" y="-165.886" font-family="Times Roman,serif" font-size="14.00">Admin::ProfilesController</text>
</g>
<!-- Admin::BaseController&#45;&gt;Admin::ProfilesController -->
<g id="edge20" class="edge"><title>Admin::BaseController&#45;&gt;Admin::ProfilesController</title>
<path fill="none" stroke="black" d="M1173.61,-653.116C1187.47,-617.257 1219.63,-536.329 1252.09,-470.725 1306.52,-360.755 1382.87,-234.76 1411.64,-188.112"/>
</g>
<!-- Admin::RedirectsController -->
<g id="node12" class="node"><title>Admin::RedirectsController</title>
<ellipse fill="none" stroke="black" cx="1053.67" cy="-453.078" rx="142.128" ry="18.3848"/>
<text text-anchor="middle" x="1053.67" y="-449.478" font-family="Times Roman,serif" font-size="14.00">Admin::RedirectsController</text>
</g>
<!-- Admin::BaseController&#45;&gt;Admin::RedirectsController -->
<g id="edge22" class="edge"><title>Admin::BaseController&#45;&gt;Admin::RedirectsController</title>
<path fill="none" stroke="black" d="M1156.89,-653.082C1135.57,-611.774 1084.56,-512.937 1063.27,-471.672"/>
</g>
<!-- Admin::ResourcesController -->
<g id="node13" class="node"><title>Admin::ResourcesController</title>
<ellipse fill="none" stroke="black" cx="147.5" cy="-275.849" rx="145.872" ry="18.3848"/>
<text text-anchor="middle" x="147.5" y="-272.249" font-family="Times Roman,serif" font-size="14.00">Admin::ResourcesController</text>
</g>
<!-- Admin::BaseController&#45;&gt;Admin::ResourcesController -->
<g id="edge24" class="edge"><title>Admin::BaseController&#45;&gt;Admin::ResourcesController</title>
<path fill="none" stroke="black" d="M1102.32,-655.899C995.888,-628.797 776.989,-569.401 599.455,-497.438 437.886,-431.945 253.663,-333.957 180.217,-293.895"/>
</g>
<!-- Admin::SeoController -->
<g id="node14" class="node"><title>Admin::SeoController</title>
<ellipse fill="none" stroke="black" cx="2138.24" cy="-653.007" rx="115.966" ry="18.3848"/>
<text text-anchor="middle" x="2138.24" y="-649.407" font-family="Times Roman,serif" font-size="14.00">Admin::SeoController</text>
</g>
<!-- Admin::BaseController&#45;&gt;Admin::SeoController -->
<g id="edge26" class="edge"><title>Admin::BaseController&#45;&gt;Admin::SeoController</title>
<path fill="none" stroke="black" d="M1286.64,-669.41C1475.03,-665.781 1837.54,-658.799 2022.92,-655.228"/>
</g>
<!-- Admin::SettingsController -->
<g id="node15" class="node"><title>Admin::SettingsController</title>
<ellipse fill="none" stroke="black" cx="1743.06" cy="-519.21" rx="137.886" ry="18.3848"/>
<text text-anchor="middle" x="1743.06" y="-515.61" font-family="Times Roman,serif" font-size="14.00">Admin::SettingsController</text>
</g>
<!-- Admin::BaseController&#45;&gt;Admin::SettingsController -->
<g id="edge28" class="edge"><title>Admin::BaseController&#45;&gt;Admin::SettingsController</title>
<path fill="none" stroke="black" d="M1227.12,-655.691C1337.27,-626.552 1569.19,-565.204 1680.65,-535.719"/>
</g>
<!-- Admin::SidebarController -->
<g id="node16" class="node"><title>Admin::SidebarController</title>
<ellipse fill="none" stroke="black" cx="1469.54" cy="-1018.05" rx="133.851" ry="18.3848"/>
<text text-anchor="middle" x="1469.54" y="-1014.45" font-family="Times Roman,serif" font-size="14.00">Admin::SidebarController</text>
</g>
<!-- Admin::BaseController&#45;&gt;Admin::SidebarController -->
<g id="edge30" class="edge"><title>Admin::BaseController&#45;&gt;Admin::SidebarController</title>
<path fill="none" stroke="black" d="M1206.51,-689.36C1265.1,-717.306 1373.49,-777.423 1430.87,-862.23 1459.92,-905.171 1467.17,-967.972 1468.97,-999.105"/>
</g>
<!-- Admin::TagsController -->
<g id="node17" class="node"><title>Admin::TagsController</title>
<ellipse fill="none" stroke="black" cx="1372.69" cy="-470.886" rx="118.794" ry="18.3848"/>
<text text-anchor="middle" x="1372.69" y="-467.286" font-family="Times Roman,serif" font-size="14.00">Admin::TagsController</text>
</g>
<!-- Admin::BaseController&#45;&gt;Admin::TagsController -->
<g id="edge32" class="edge"><title>Admin::BaseController&#45;&gt;Admin::TagsController</title>
<path fill="none" stroke="black" d="M1185.54,-653.19C1224.81,-614.929 1314.47,-527.598 1353.71,-489.376"/>
</g>
<!-- Admin::TextfiltersController -->
<g id="node18" class="node"><title>Admin::TextfiltersController</title>
<ellipse fill="none" stroke="black" cx="1737.62" cy="-172.457" rx="145.163" ry="18.3848"/>
<text text-anchor="middle" x="1737.62" y="-168.857" font-family="Times Roman,serif" font-size="14.00">Admin::TextfiltersController</text>
</g>
<!-- Admin::BaseController&#45;&gt;Admin::TextfiltersController -->
<g id="edge34" class="edge"><title>Admin::BaseController&#45;&gt;Admin::TextfiltersController</title>
<path fill="none" stroke="black" d="M1203.73,-654.071C1267.32,-622.826 1399.14,-553.267 1493.29,-471.047 1597.72,-379.844 1693.02,-240.908 1725.67,-191.063"/>
</g>
<!-- Admin::ThemesController -->
<g id="node19" class="node"><title>Admin::ThemesController</title>
<ellipse fill="none" stroke="black" cx="892.386" cy="-736.406" rx="135.765" ry="18.3848"/>
<text text-anchor="middle" x="892.386" y="-732.806" font-family="Times Roman,serif" font-size="14.00">Admin::ThemesController</text>
</g>
<!-- Admin::BaseController&#45;&gt;Admin::ThemesController -->
<g id="edge36" class="edge"><title>Admin::BaseController&#45;&gt;Admin::ThemesController</title>
<path fill="none" stroke="black" d="M1100.5,-687.299C1058.2,-697.28 1003.42,-710.206 960.684,-720.29"/>
</g>
<!-- Admin::UsersController -->
<g id="node20" class="node"><title>Admin::UsersController</title>
<ellipse fill="none" stroke="black" cx="412.373" cy="-585.597" rx="123.951" ry="18.3848"/>
<text text-anchor="middle" x="412.373" y="-581.997" font-family="Times Roman,serif" font-size="14.00">Admin::UsersController</text>
</g>
<!-- Admin::BaseController&#45;&gt;Admin::UsersController -->
<g id="edge38" class="edge"><title>Admin::BaseController&#45;&gt;Admin::UsersController</title>
<path fill="none" stroke="black" d="M1069.46,-660.641C925.256,-644.172 655.865,-613.406 510.841,-596.843"/>
</g>
<!-- ApplicationController -->
<g id="node21" class="node"><title>ApplicationController</title>
<ellipse fill="none" stroke="black" cx="1058.85" cy="-898.148" rx="113.844" ry="18.3848"/>
<text text-anchor="middle" x="1058.85" y="-894.548" font-family="Times Roman,serif" font-size="14.00">ApplicationController</text>
</g>
<!-- ApplicationController&#45;&gt;AccountsController -->
<g id="edge2" class="edge"><title>ApplicationController&#45;&gt;AccountsController</title>
<path fill="none" stroke="black" d="M1029.45,-916.209C988.333,-941.466 914.121,-987.053 873.198,-1012.19"/>
</g>
<!-- ApplicationController&#45;&gt;Admin::BaseController -->
<g id="edge4" class="edge"><title>ApplicationController&#45;&gt;Admin::BaseController</title>
<path fill="none" stroke="black" d="M1067.66,-879.618C1087.9,-837.054 1137.52,-732.696 1157.73,-690.192"/>
</g>
<!-- ContentController -->
<g id="node27" class="node"><title>ContentController</title>
<ellipse fill="none" stroke="black" cx="1349.45" cy="-1293.06" rx="99.9096" ry="18.3848"/>
<text text-anchor="middle" x="1349.45" y="-1289.46" font-family="Times Roman,serif" font-size="14.00">ContentController</text>
</g>
<!-- ApplicationController&#45;&gt;ContentController -->
<g id="edge50" class="edge"><title>ApplicationController&#45;&gt;ContentController</title>
<path fill="none" stroke="black" d="M1082.8,-916.282C1125.01,-949.28 1213.32,-1023.09 1267.63,-1102.34 1306.95,-1159.69 1333.49,-1238.97 1344.17,-1274.52"/>
</g>
<!-- FeedbackController -->
<g id="node28" class="node"><title>FeedbackController</title>
<ellipse fill="none" stroke="black" cx="518.262" cy="-1177.84" rx="104.86" ry="18.3848"/>
<text text-anchor="middle" x="518.262" y="-1174.24" font-family="Times Roman,serif" font-size="14.00">FeedbackController</text>
</g>
<!-- ApplicationController&#45;&gt;FeedbackController -->
<g id="edge52" class="edge"><title>ApplicationController&#45;&gt;FeedbackController</title>
<path fill="none" stroke="black" d="M1008.35,-914.781C943.789,-936.966 829.483,-979.368 738.553,-1029.88 663.846,-1071.38 581.74,-1130.43 542.184,-1159.8"/>
</g>
<!-- SetupController -->
<g id="node30" class="node"><title>SetupController</title>
<ellipse fill="none" stroke="black" cx="597.923" cy="-854.991" rx="89.0955" ry="18.3848"/>
<text text-anchor="middle" x="597.923" y="-851.391" font-family="Times Roman,serif" font-size="14.00">SetupController</text>
</g>
<!-- ApplicationController&#45;&gt;SetupController -->
<g id="edge56" class="edge"><title>ApplicationController&#45;&gt;SetupController</title>
<path fill="none" stroke="black" d="M959.97,-888.889C876.249,-881.051 757.687,-869.95 679.35,-862.615"/>
</g>
<!-- TextfilterController -->
<g id="node32" class="node"><title>TextfilterController</title>
<ellipse fill="none" stroke="black" cx="1162.04" cy="-1102.14" rx="103.945" ry="18.3848"/>
<text text-anchor="middle" x="1162.04" y="-1098.54" font-family="Times Roman,serif" font-size="14.00">TextfilterController</text>
</g>
<!-- ApplicationController&#45;&gt;TextfilterController -->
<g id="edge60" class="edge"><title>ApplicationController&#45;&gt;TextfilterController</title>
<path fill="none" stroke="black" d="M1068.19,-916.61C1087.79,-955.349 1133,-1044.74 1152.65,-1083.57"/>
</g>
<!-- XmlController -->
<g id="node35" class="node"><title>XmlController</title>
<ellipse fill="none" stroke="black" cx="936.598" cy="-1290.72" rx="79.9031" ry="18.3848"/>
<text text-anchor="middle" x="936.598" y="-1287.12" font-family="Times Roman,serif" font-size="14.00">XmlController</text>
</g>
<!-- ApplicationController&#45;&gt;XmlController -->
<g id="edge66" class="edge"><title>ApplicationController&#45;&gt;XmlController</title>
<path fill="none" stroke="black" d="M1053.04,-916.818C1032.44,-982.948 963.098,-1205.62 942.448,-1271.93"/>
</g>
<!-- ArticlesController -->
<g id="node22" class="node"><title>ArticlesController</title>
<ellipse fill="none" stroke="black" cx="1137.26" cy="-1552.2" rx="96.8736" ry="18.3848"/>
<text text-anchor="middle" x="1137.26" y="-1548.6" font-family="Times Roman,serif" font-size="14.00">ArticlesController</text>
</g>
<!-- AuthorsController -->
<g id="node23" class="node"><title>AuthorsController</title>
<ellipse fill="none" stroke="black" cx="672.772" cy="-1534.2" rx="98.9949" ry="18.3848"/>
<text text-anchor="middle" x="672.772" y="-1530.6" font-family="Times Roman,serif" font-size="14.00">AuthorsController</text>
</g>
<!-- BackendController -->
<g id="node24" class="node"><title>BackendController</title>
<ellipse fill="none" stroke="black" cx="1596.59" cy="-1543.7" rx="101.116" ry="18.3848"/>
<text text-anchor="middle" x="1596.59" y="-1540.1" font-family="Times Roman,serif" font-size="14.00">BackendController</text>
</g>
<!-- CategoriesController -->
<g id="node25" class="node"><title>CategoriesController</title>
<ellipse fill="none" stroke="black" cx="2092.78" cy="-1495.48" rx="111.93" ry="18.3848"/>
<text text-anchor="middle" x="2092.78" y="-1491.88" font-family="Times Roman,serif" font-size="14.00">CategoriesController</text>
</g>
<!-- CommentsController -->
<g id="node26" class="node"><title>CommentsController</title>
<ellipse fill="none" stroke="black" cx="191.516" cy="-1448.01" rx="111.93" ry="18.3848"/>
<text text-anchor="middle" x="191.516" y="-1444.41" font-family="Times Roman,serif" font-size="14.00">CommentsController</text>
</g>
<!-- ContentController&#45;&gt;ArticlesController -->
<g id="edge40" class="edge"><title>ContentController&#45;&gt;ArticlesController</title>
<path fill="none" stroke="black" d="M1334.19,-1311.7C1295.04,-1359.51 1191.38,-1486.1 1152.38,-1533.73"/>
</g>
<!-- ContentController&#45;&gt;AuthorsController -->
<g id="edge42" class="edge"><title>ContentController&#45;&gt;AuthorsController</title>
<path fill="none" stroke="black" d="M1303.21,-1309.54C1179.52,-1353.62 842.155,-1473.84 718.764,-1517.81"/>
</g>
<!-- ContentController&#45;&gt;BackendController -->
<g id="edge44" class="edge"><title>ContentController&#45;&gt;BackendController</title>
<path fill="none" stroke="black" d="M1367.62,-1311.49C1413.33,-1357.84 1532.66,-1478.86 1578.39,-1525.24"/>
</g>
<!-- GroupingController -->
<g id="node29" class="node"><title>GroupingController</title>
<ellipse fill="none" stroke="black" cx="1739.63" cy="-1219.79" rx="104.86" ry="18.3848"/>
<text text-anchor="middle" x="1739.63" y="-1216.19" font-family="Times Roman,serif" font-size="14.00">GroupingController</text>
</g>
<!-- ContentController&#45;&gt;GroupingController -->
<g id="edge54" class="edge"><title>ContentController&#45;&gt;GroupingController</title>
<path fill="none" stroke="black" d="M1419.66,-1279.88C1489.76,-1266.72 1596.97,-1246.58 1667.67,-1233.3"/>
</g>
<!-- ThemeController -->
<g id="node33" class="node"><title>ThemeController</title>
<ellipse fill="none" stroke="black" cx="1784.15" cy="-871.197" rx="94.0452" ry="18.3848"/>
<text text-anchor="middle" x="1784.15" y="-867.597" font-family="Times Roman,serif" font-size="14.00">ThemeController</text>
</g>
<!-- ContentController&#45;&gt;ThemeController -->
<g id="edge62" class="edge"><title>ContentController&#45;&gt;ThemeController</title>
<path fill="none" stroke="black" d="M1368.41,-1274.67C1439.98,-1205.2 1693.35,-959.317 1765.09,-889.692"/>
</g>
<!-- FeedbackController&#45;&gt;CommentsController -->
<g id="edge48" class="edge"><title>FeedbackController&#45;&gt;CommentsController</title>
<path fill="none" stroke="black" d="M496.316,-1195.99C436.935,-1245.09 273.567,-1380.17 213.797,-1429.59"/>
</g>
<!-- TrackbacksController -->
<g id="node34" class="node"><title>TrackbacksController</title>
<ellipse fill="none" stroke="black" cx="149.765" cy="-898.686" rx="113.137" ry="18.3848"/>
<text text-anchor="middle" x="149.765" y="-895.086" font-family="Times Roman,serif" font-size="14.00">TrackbacksController</text>
</g>
<!-- FeedbackController&#45;&gt;TrackbacksController -->
<g id="edge64" class="edge"><title>FeedbackController&#45;&gt;TrackbacksController</title>
<path fill="none" stroke="black" d="M494.368,-1159.74C427.862,-1109.36 241.101,-967.878 174.085,-917.11"/>
</g>
<!-- GroupingController&#45;&gt;CategoriesController -->
<g id="edge46" class="edge"><title>GroupingController&#45;&gt;CategoriesController</title>
<path fill="none" stroke="black" d="M1762.8,-1237.88C1826.79,-1287.83 2005.43,-1427.29 2069.52,-1477.33"/>
</g>
<!-- TagsController -->
<g id="node31" class="node"><title>TagsController</title>
<ellipse fill="none" stroke="black" cx="2143.17" cy="-1076.2" rx="82.0244" ry="18.3848"/>
<text text-anchor="middle" x="2143.17" y="-1072.6" font-family="Times Roman,serif" font-size="14.00">TagsController</text>
</g>
<!-- GroupingController&#45;&gt;TagsController -->
<g id="edge58" class="edge"><title>GroupingController&#45;&gt;TagsController</title>
<path fill="none" stroke="black" d="M1786.31,-1203.18C1864.84,-1175.24 2022.28,-1119.22 2099.05,-1091.9"/>
</g>
</g>
</svg>
