<?xml version="1.0" encoding="UTF-8" standalone="no"?>
<!DOCTYPE svg PUBLIC "-//W3C//DTD SVG 1.1//EN"
 "http://www.w3.org/Graphics/SVG/1.1/DTD/svg11.dtd">
<!-- Generated by graphviz version 2.26.3 (20100126.1600)
 -->
<!-- Title: models_diagram Pages: 1 -->
<svg width="2491pt" height="514pt"
 viewBox="0.00 0.00 2491.00 514.00" xmlns="http://www.w3.org/2000/svg" xmlns:xlink="http://www.w3.org/1999/xlink">
<g id="graph1" class="graph" transform="scale(1 1) rotate(0) translate(4 510)">
<title>models_diagram</title>
<polygon fill="white" stroke="white" points="-4,5 -4,-510 2488,-510 2488,5 -4,5"/>
<!-- _diagram_info -->
<g id="node1" class="node"><title>_diagram_info</title>
<text text-anchor="start" x="292" y="-489.8" font-family="Times Roman,serif" font-size="13.00">Models diagram</text>
<text text-anchor="start" x="292" y="-472.8" font-family="Times Roman,serif" font-size="13.00">Date: Nov 19 2013 &#45; 03:35</text>
<text text-anchor="start" x="292" y="-455.8" font-family="Times Roman,serif" font-size="13.00">Migration version: 104</text>
<text text-anchor="start" x="292" y="-438.8" font-family="Times Roman,serif" font-size="13.00">Generated by RailRoady 1.1.1</text>
<text text-anchor="start" x="292" y="-421.8" font-family="Times Roman,serif" font-size="13.00">http://railroady.prestonlee.com</text>
</g>
<!-- Article::States -->
<g id="node2" class="node"><title>Article::States</title>
<polygon fill="none" stroke="black" stroke-dasharray="1,5" points="626,-477 512,-477 512,-441 626,-441 626,-477"/>
<text text-anchor="middle" x="569" y="-455.4" font-family="Times Roman,serif" font-size="14.00">Article::States</text>
</g>
<!-- Article -->
<g id="node3" class="node"><title>Article</title>
<ellipse fill="none" stroke="black" cx="658" cy="-187" rx="43.1335" ry="18.3848"/>
<text text-anchor="middle" x="658" y="-183.4" font-family="Times Roman,serif" font-size="14.00">Article</text>
</g>
<!-- Categorization -->
<g id="node6" class="node"><title>Categorization</title>
<ellipse fill="none" stroke="black" cx="178" cy="-19" rx="84.1457" ry="18.3848"/>
<text text-anchor="middle" x="178" y="-15.4" font-family="Times Roman,serif" font-size="14.00">Categorization</text>
</g>
<!-- Article&#45;&gt;Categorization -->
<g id="edge12" class="edge"><title>Article&#45;&gt;Categorization</title>
<path fill="none" stroke="#a04be7" d="M607.957,-181.363C576.921,-176.337 537.005,-167.021 505,-150 461.948,-127.104 467.161,-98.6889 424,-76 374.718,-50.0934 313.79,-35.8627 264.899,-28.0992"/>
<ellipse fill="none" stroke="#a04be7" cx="612.099" cy="-182.001" rx="4.00001" ry="4.00001"/>
<polygon fill="#a04be7" stroke="#a04be7" points="264.86,-28.0932 255.653,-22.1365 259.917,-27.3391 254.974,-26.585 254.974,-26.585 254.974,-26.585 259.917,-27.3391 254.295,-31.0335 264.86,-28.0932 264.86,-28.0932"/>
</g>
<!-- Category -->
<g id="node7" class="node"><title>Category</title>
<ellipse fill="none" stroke="black" cx="178" cy="-95" rx="56.0679" ry="18.3848"/>
<text text-anchor="middle" x="178" y="-91.4" font-family="Times Roman,serif" font-size="14.00">Category</text>
</g>
<!-- Article&#45;&gt;Category -->
<g id="edge14" class="edge"><title>Article&#45;&gt;Category</title>
<path fill="none" stroke="#12efa2" d="M606.669,-180.182C557.949,-173.452 482.751,-162.394 418,-150 354.11,-137.771 281.372,-120.646 232.881,-108.767"/>
<polygon fill="#12efa2" stroke="#12efa2" points="606.743,-180.192 616.039,-186.01 611.697,-180.872 616.65,-181.551 616.65,-181.551 616.65,-181.551 611.697,-180.872 617.262,-177.093 606.743,-180.192 606.743,-180.192"/>
<polygon fill="#12efa2" stroke="#12efa2" points="232.624,-108.704 223.988,-101.946 227.768,-107.51 222.913,-106.316 222.913,-106.316 222.913,-106.316 227.768,-107.51 221.838,-110.685 232.624,-108.704 232.624,-108.704"/>
</g>
<!-- Comment -->
<g id="node8" class="node"><title>Comment</title>
<ellipse fill="none" stroke="black" cx="832" cy="-19" rx="58.1882" ry="18.3848"/>
<text text-anchor="middle" x="832" y="-15.4" font-family="Times Roman,serif" font-size="14.00">Comment</text>
</g>
<!-- Article&#45;&gt;Comment -->
<g id="edge16" class="edge"><title>Article&#45;&gt;Comment</title>
<path fill="none" stroke="#f919ea" d="M697.732,-171.702C701.845,-170.353 705.987,-169.089 710,-168 753.159,-156.283 777.473,-181.718 809,-150 835.531,-123.308 837.602,-77.5046 835.605,-47.7439"/>
<ellipse fill="none" stroke="#f919ea" cx="693.687" cy="-173.083" rx="4.00001" ry="4.00001"/>
<polygon fill="#f919ea" stroke="#f919ea" points="835.587,-47.533 839.206,-37.1816 835.155,-42.5517 834.723,-37.5704 834.723,-37.5704 834.723,-37.5704 835.155,-42.5517 830.24,-37.9592 835.587,-47.533 835.587,-47.533"/>
</g>
<!-- Article&#45;&gt;Comment -->
<g id="edge18" class="edge"><title>Article&#45;&gt;Comment</title>
<path fill="none" stroke="#c25574" d="M697.203,-171.732C701.484,-170.348 705.809,-169.068 710,-168 762.259,-154.678 786.719,-182.174 830,-150 864.355,-124.461 861.059,-97.609 851,-56 850.219,-52.7713 849.106,-49.5083 847.804,-46.3275"/>
<ellipse fill="none" stroke="#c25574" cx="693.37" cy="-173.03" rx="4.00001" ry="4.00001"/>
<polygon fill="#c25574" stroke="#c25574" points="847.742,-46.195 847.551,-35.2308 845.611,-41.6718 843.48,-37.1486 843.48,-37.1486 843.48,-37.1486 845.611,-41.6718 839.409,-39.0664 847.742,-46.195 847.742,-46.195"/>
<text text-anchor="middle" x="930" y="-91.4" font-family="Times Roman,serif" font-size="14.00">published_comments</text>
</g>
<!-- Feedback -->
<g id="node13" class="node"><title>Feedback</title>
<ellipse fill="none" stroke="black" cx="748" cy="-95" rx="56.0679" ry="18.3848"/>
<text text-anchor="middle" x="748" y="-91.4" font-family="Times Roman,serif" font-size="14.00">Feedback</text>
</g>
<!-- Article&#45;&gt;Feedback -->
<g id="edge22" class="edge"><title>Article&#45;&gt;Feedback</title>
<path fill="none" stroke="#3304aa" d="M650.204,-160.753C648.858,-150.991 649.38,-140.285 655,-132 660.234,-124.285 677.417,-116.538 695.614,-110.14"/>
<ellipse fill="none" stroke="#3304aa" cx="650.958" cy="-164.727" rx="4.00001" ry="4.00001"/>
<polygon fill="#3304aa" stroke="#3304aa" points="695.687,-110.116 706.601,-111.19 700.426,-108.52 705.165,-106.925 705.165,-106.925 705.165,-106.925 700.426,-108.52 703.729,-102.66 695.687,-110.116 695.687,-110.116"/>
<text text-anchor="middle" x="722" y="-137.4" font-family="Times Roman,serif" font-size="14.00">published_feedback</text>
</g>
<!-- Article&#45;&gt;Feedback -->
<g id="edge8" class="edge"><title>Article&#45;&gt;Feedback</title>
<path fill="none" stroke="#c13b9a" d="M697.771,-171.841C701.876,-170.466 706.006,-169.157 710,-168 746.256,-157.498 769.306,-179.383 793,-150 801.558,-139.388 794.343,-127.69 783.379,-117.82"/>
<ellipse fill="none" stroke="#c13b9a" cx="693.73" cy="-173.24" rx="4.00001" ry="4.00001"/>
<polygon fill="#c13b9a" stroke="#c13b9a" points="783.111,-117.604 778.166,-107.817 779.224,-114.46 775.336,-111.315 775.336,-111.315 775.336,-111.315 779.224,-114.46 772.506,-114.814 783.111,-117.604 783.111,-117.604"/>
</g>
<!-- Ping -->
<g id="node18" class="node"><title>Ping</title>
<ellipse fill="none" stroke="black" cx="1158" cy="-95" rx="33.234" ry="18.3848"/>
<text text-anchor="middle" x="1158" y="-91.4" font-family="Times Roman,serif" font-size="14.00">Ping</text>
</g>
<!-- Article&#45;&gt;Ping -->
<g id="edge4" class="edge"><title>Article&#45;&gt;Ping</title>
<path fill="none" stroke="#46a660" d="M696.955,-171.498C701.308,-170.147 705.716,-168.939 710,-168 806.262,-146.899 833.453,-164.01 931,-150 1009.17,-138.773 1028.98,-135.377 1105,-114 1110.29,-112.512 1115.82,-110.76 1121.22,-108.933"/>
<ellipse fill="none" stroke="#46a660" cx="693.017" cy="-172.801" rx="4.00001" ry="4.00001"/>
<polygon fill="#46a660" stroke="#46a660" points="1121.29,-108.908 1132.22,-109.849 1126.01,-107.255 1130.73,-105.602 1130.73,-105.602 1130.73,-105.602 1126.01,-107.255 1129.24,-101.355 1121.29,-108.908 1121.29,-108.908"/>
</g>
<!-- Resource -->
<g id="node23" class="node"><title>Resource</title>
<ellipse fill="none" stroke="black" cx="1270" cy="-95" rx="55.8614" ry="18.3848"/>
<text text-anchor="middle" x="1270" y="-91.4" font-family="Times Roman,serif" font-size="14.00">Resource</text>
</g>
<!-- Article&#45;&gt;Resource -->
<g id="edge10" class="edge"><title>Article&#45;&gt;Resource</title>
<path fill="none" stroke="#bcd464" d="M696.759,-171.472C701.173,-170.114 705.649,-168.911 710,-168 835.092,-141.798 870.099,-165.183 997,-150 1087.98,-139.115 1110.58,-134.021 1200,-114 1205.75,-112.713 1211.73,-111.263 1217.67,-109.751"/>
<ellipse fill="none" stroke="#bcd464" cx="692.72" cy="-172.803" rx="4.00001" ry="4.00001"/>
<polygon fill="#bcd464" stroke="#bcd464" points="1217.9,-109.69 1228.72,-111.521 1222.74,-108.428 1227.58,-107.167 1227.58,-107.167 1227.58,-107.167 1222.74,-108.428 1226.45,-102.813 1217.9,-109.69 1217.9,-109.69"/>
</g>
<!-- Tag -->
<g id="node26" class="node"><title>Tag</title>
<ellipse fill="none" stroke="black" cx="1068" cy="-95" rx="27.7881" ry="18.3848"/>
<text text-anchor="middle" x="1068" y="-91.4" font-family="Times Roman,serif" font-size="14.00">Tag</text>
</g>
<!-- Article&#45;&gt;Tag -->
<g id="edge24" class="edge"><title>Article&#45;&gt;Tag</title>
<path fill="none" stroke="#5bf959" d="M698.946,-171.026C702.65,-169.89 706.372,-168.857 710,-168 778.785,-151.758 798.327,-161.869 868,-150 938.999,-137.905 957.735,-136.958 1026,-114 1029.29,-112.895 1032.66,-111.62 1036,-110.264"/>
<polygon fill="#5bf959" stroke="#5bf959" points="698.754,-171.09 687.847,-169.953 694.006,-172.658 689.258,-174.226 689.258,-174.226 689.258,-174.226 694.006,-172.658 690.669,-178.499 698.754,-171.09 698.754,-171.09"/>
<polygon fill="#5bf959" stroke="#5bf959" points="1036.04,-110.249 1047,-110.438 1040.63,-108.276 1045.23,-106.303 1045.23,-106.303 1045.23,-106.303 1040.63,-108.276 1043.45,-102.169 1036.04,-110.249 1036.04,-110.249"/>
</g>
<!-- Trackback -->
<g id="node29" class="node"><title>Trackback</title>
<ellipse fill="none" stroke="black" cx="664" cy="-19" rx="58.8978" ry="18.3848"/>
<text text-anchor="middle" x="664" y="-15.4" font-family="Times Roman,serif" font-size="14.00">Trackback</text>
</g>
<!-- Article&#45;&gt;Trackback -->
<g id="edge6" class="edge"><title>Article&#45;&gt;Trackback</title>
<path fill="none" stroke="#aa4d6a" d="M648.315,-160.517C647.361,-157.02 646.546,-153.452 646,-150 640.43,-114.769 648.252,-74.0472 655.261,-47.478"/>
<ellipse fill="none" stroke="#aa4d6a" cx="649.566" cy="-164.63" rx="4.00001" ry="4.00001"/>
<polygon fill="#aa4d6a" stroke="#aa4d6a" points="655.303,-47.3275 662.313,-38.8946 656.64,-42.5095 657.977,-37.6915 657.977,-37.6915 657.977,-37.6915 656.64,-42.5095 653.64,-36.4883 655.303,-47.3275 655.303,-47.3275"/>
</g>
<!-- Article&#45;&gt;Trackback -->
<g id="edge20" class="edge"><title>Article&#45;&gt;Trackback</title>
<path fill="none" stroke="#68a79b" d="M611.658,-176.203C551.517,-159.939 458.259,-125.68 494,-76 507.281,-57.5387 560.785,-41.5822 604.268,-31.2856"/>
<ellipse fill="none" stroke="#68a79b" cx="615.676" cy="-177.264" rx="4.00001" ry="4.00001"/>
<polygon fill="#68a79b" stroke="#68a79b" points="604.48,-31.2366 615.236,-33.3683 609.351,-30.1103 614.223,-28.9839 614.223,-28.9839 614.223,-28.9839 609.351,-30.1103 613.209,-24.5996 604.48,-31.2366 604.48,-31.2366"/>
<text text-anchor="middle" x="567.5" y="-91.4" font-family="Times Roman,serif" font-size="14.00">published_trackbacks</text>
</g>
<!-- Trigger -->
<g id="node30" class="node"><title>Trigger</title>
<ellipse fill="none" stroke="black" cx="370" cy="-95" rx="44.7575" ry="18.3848"/>
<text text-anchor="middle" x="370" y="-91.4" font-family="Times Roman,serif" font-size="14.00">Trigger</text>
</g>
<!-- Article&#45;&gt;Trigger -->
<g id="edge2" class="edge"><title>Article&#45;&gt;Trigger</title>
<path fill="none" stroke="#9064b5" d="M608.107,-181.178C554.139,-174.394 471.934,-162.509 443,-150 433.388,-145.844 414.281,-131.353 398.026,-118.288"/>
<ellipse fill="none" stroke="#9064b5" cx="612.215" cy="-181.688" rx="4.00001" ry="4.00001"/>
<polygon fill="#9064b5" stroke="#9064b5" points="397.614,-117.953 392.688,-108.156 393.733,-114.801 389.851,-111.649 389.851,-111.649 389.851,-111.649 393.733,-114.801 387.014,-115.142 397.614,-117.953 397.614,-117.953"/>
</g>
<!-- Blog -->
<g id="node4" class="node"><title>Blog</title>
<ellipse fill="none" stroke="black" cx="33" cy="-355" rx="33.234" ry="18.3848"/>
<text text-anchor="middle" x="33" y="-351.4" font-family="Times Roman,serif" font-size="14.00">Blog</text>
</g>
<!-- BlogSweeper -->
<g id="node5" class="node"><title>BlogSweeper</title>
<polygon fill="none" stroke="black" points="1410,-373 1304,-373 1304,-337 1410,-337 1410,-373"/>
<text text-anchor="middle" x="1357" y="-351.4" font-family="Times Roman,serif" font-size="14.00">BlogSweeper</text>
</g>
<!-- Category&#45;&gt;Categorization -->
<g id="edge36" class="edge"><title>Category&#45;&gt;Categorization</title>
<path fill="none" stroke="#6fbe3e" d="M178,-68.0731C178,-61.4485 178,-54.332 178,-47.6302"/>
<ellipse fill="none" stroke="#6fbe3e" cx="178" cy="-72.2135" rx="4" ry="4"/>
<polygon fill="#6fbe3e" stroke="#6fbe3e" points="178,-47.5704 182.5,-37.5704 178,-42.5704 178,-37.5704 178,-37.5704 178,-37.5704 178,-42.5704 173.5,-37.5705 178,-47.5704 178,-47.5704"/>
</g>
<!-- Category&#45;&gt;Category -->
<g id="edge34" class="edge"><title>Category&#45;&gt;Category</title>
<path fill="none" stroke="#91baa4" d="M237.921,-101.381C246.351,-100.341 252,-98.2146 252,-95 252,-92.0776 247.332,-90.0542 240.149,-88.9298"/>
<ellipse fill="none" stroke="#91baa4" cx="233.856" cy="-101.7" rx="4" ry="4"/>
<polygon fill="#91baa4" stroke="#91baa4" points="239.827,-88.9003 230.28,-83.5052 234.848,-88.4433 229.869,-87.9863 229.869,-87.9863 229.869,-87.9863 234.848,-88.4433 229.457,-92.4675 239.827,-88.9003 239.827,-88.9003"/>
<text text-anchor="middle" x="279.5" y="-91.4" font-family="Times Roman,serif" font-size="14.00">children</text>
</g>
<!-- ConfigManager -->
<g id="node9" class="node"><title>ConfigManager</title>
<polygon fill="none" stroke="black" stroke-dasharray="1,5" points="1681,-477 1561,-477 1561,-441 1681,-441 1681,-477"/>
<text text-anchor="middle" x="1621" y="-455.4" font-family="Times Roman,serif" font-size="14.00">ConfigManager</text>
</g>
<!-- Content -->
<g id="node10" class="node"><title>Content</title>
<ellipse fill="none" stroke="black" cx="550" cy="-355" rx="51.1176" ry="18.3848"/>
<text text-anchor="middle" x="550" y="-351.4" font-family="Times Roman,serif" font-size="14.00">Content</text>
</g>
<!-- Content&#45;&gt;Article -->
<g id="edge26" class="edge"><title>Content&#45;&gt;Article</title>
<path fill="none" stroke="black" d="M540.479,-336.621C536.135,-325.665 532.962,-311.664 538,-300 557.176,-255.603 603.33,-220.578 632.486,-201.899"/>
</g>
<!-- Content&#45;&gt;Feedback -->
<g id="edge56" class="edge"><title>Content&#45;&gt;Feedback</title>
<path fill="none" stroke="black" d="M600.222,-351.449C658.838,-346.535 751.513,-336.149 781,-318 833.316,-285.799 843.08,-264.445 862,-206 867.201,-189.932 869.905,-182.925 862,-168 846.545,-138.82 813.716,-119.681 787.239,-108.351"/>
</g>
<!-- Notification -->
<g id="node14" class="node"><title>Notification</title>
<ellipse fill="none" stroke="black" cx="786" cy="-187" rx="67.1751" ry="18.3848"/>
<text text-anchor="middle" x="786" y="-183.4" font-family="Times Roman,serif" font-size="14.00">Notification</text>
</g>
<!-- Content&#45;&gt;Notification -->
<g id="edge42" class="edge"><title>Content&#45;&gt;Notification</title>
<path fill="none" stroke="#ee386e" d="M609.191,-351.907C663.652,-347.799 739.05,-338.504 760,-318 787.008,-291.567 790.165,-245.693 788.894,-215.847"/>
<ellipse fill="none" stroke="#ee386e" cx="604.969" cy="-352.211" rx="4" ry="4"/>
<polygon fill="#ee386e" stroke="#ee386e" points="788.88,-215.622 792.752,-205.363 788.57,-210.632 788.261,-205.641 788.261,-205.641 788.261,-205.641 788.57,-210.632 783.769,-205.92 788.88,-215.622 788.88,-215.622"/>
</g>
<!-- Page -->
<g id="node16" class="node"><title>Page</title>
<ellipse fill="none" stroke="black" cx="391" cy="-263" rx="34.8574" ry="18.3848"/>
<text text-anchor="middle" x="391" y="-259.4" font-family="Times Roman,serif" font-size="14.00">Page</text>
</g>
<!-- Content&#45;&gt;Page -->
<g id="edge62" class="edge"><title>Content&#45;&gt;Page</title>
<path fill="none" stroke="black" d="M511.869,-342.687C481.375,-332.758 443.194,-320.11 440,-318 425.061,-308.132 411.807,-292.608 402.863,-280.566"/>
</g>
<!-- Redirect -->
<g id="node21" class="node"><title>Redirect</title>
<ellipse fill="none" stroke="black" cx="287" cy="-263" rx="51.1176" ry="18.3848"/>
<text text-anchor="middle" x="287" y="-259.4" font-family="Times Roman,serif" font-size="14.00">Redirect</text>
</g>
<!-- Content&#45;&gt;Redirect -->
<g id="edge48" class="edge"><title>Content&#45;&gt;Redirect</title>
<path fill="none" stroke="#9c2560" d="M502.351,-339.602C498.184,-338.349 494.023,-337.132 490,-336 457.832,-326.951 448.709,-328.543 417,-318 386.276,-307.784 352.639,-293.464 327.279,-281.996"/>
<polygon fill="#9c2560" stroke="#9c2560" points="502.462,-339.636 510.705,-346.867 507.242,-341.1 512.023,-342.565 512.023,-342.565 512.023,-342.565 507.242,-341.1 513.341,-338.262 502.462,-339.636 502.462,-339.636"/>
<polygon fill="#9c2560" stroke="#9c2560" points="327.085,-281.908 319.857,-273.662 322.537,-279.831 317.988,-277.755 317.988,-277.755 317.988,-277.755 322.537,-279.831 316.119,-281.849 327.085,-281.908 327.085,-281.908"/>
</g>
<!-- Redirection -->
<g id="node22" class="node"><title>Redirection</title>
<ellipse fill="none" stroke="black" cx="287" cy="-187" rx="65.9683" ry="18.3848"/>
<text text-anchor="middle" x="287" y="-183.4" font-family="Times Roman,serif" font-size="14.00">Redirection</text>
</g>
<!-- Content&#45;&gt;Redirection -->
<g id="edge46" class="edge"><title>Content&#45;&gt;Redirection</title>
<path fill="none" stroke="#8ae9cd" d="M507.04,-337.97C496.767,-332.596 486.365,-325.943 478,-318 450.417,-291.807 463.945,-268.68 435,-244 410.822,-223.385 378.37,-209.774 350.015,-201.04"/>
<ellipse fill="none" stroke="#8ae9cd" cx="510.884" cy="-339.878" rx="4.00002" ry="4.00002"/>
<polygon fill="#8ae9cd" stroke="#8ae9cd" points="349.772,-200.969 341.445,-193.834 344.974,-199.56 340.177,-198.151 340.177,-198.151 340.177,-198.151 344.974,-199.56 338.909,-202.469 349.772,-200.969 349.772,-200.969"/>
</g>
<!-- Content&#45;&gt;Trigger -->
<g id="edge50" class="edge"><title>Content&#45;&gt;Trigger</title>
<path fill="none" stroke="#4c3b67" d="M532.772,-330.115C498.716,-280.923 423.07,-171.657 388.222,-121.321"/>
<ellipse fill="none" stroke="#4c3b67" cx="535.066" cy="-333.429" rx="4.00002" ry="4.00002"/>
<polygon fill="#4c3b67" stroke="#4c3b67" points="388.096,-121.139 386.104,-110.356 385.25,-117.028 382.404,-112.917 382.404,-112.917 382.404,-112.917 385.25,-117.028 378.704,-115.479 388.096,-121.139 388.096,-121.139"/>
</g>
<!-- User -->
<g id="node31" class="node"><title>User</title>
<ellipse fill="none" stroke="black" cx="681" cy="-263" rx="33.9411" ry="18.3848"/>
<text text-anchor="middle" x="681" y="-259.4" font-family="Times Roman,serif" font-size="14.00">User</text>
</g>
<!-- Content&#45;&gt;User -->
<g id="edge44" class="edge"><title>Content&#45;&gt;User</title>
<path fill="none" stroke="#ebae2c" d="M607.361,-345.426C625.688,-339.964 644.863,-331.403 659,-318 666.533,-310.858 671.546,-300.797 674.855,-291.23"/>
<polygon fill="#ebae2c" stroke="#ebae2c" points="607.246,-345.458 596.416,-343.739 602.421,-346.77 597.596,-348.082 597.596,-348.082 597.596,-348.082 602.421,-346.77 598.777,-352.424 607.246,-345.458 607.246,-345.458"/>
<polygon fill="#ebae2c" stroke="#ebae2c" points="674.873,-291.168 682.034,-282.863 676.297,-286.375 677.72,-281.582 677.72,-281.582 677.72,-281.582 676.297,-286.375 673.407,-280.301 674.873,-291.168 674.873,-291.168"/>
<text text-anchor="middle" x="713.5" y="-305.4" font-family="Times Roman,serif" font-size="14.00">notify_users</text>
</g>
<!-- EmailNotifier -->
<g id="node11" class="node"><title>EmailNotifier</title>
<polygon fill="none" stroke="black" points="1818,-373 1714,-373 1714,-337 1818,-337 1818,-373"/>
<text text-anchor="middle" x="1766" y="-351.4" font-family="Times Roman,serif" font-size="14.00">EmailNotifier</text>
</g>
<!-- Feedback::States -->
<g id="node12" class="node"><title>Feedback::States</title>
<polygon fill="none" stroke="black" stroke-dasharray="1,5" points="2103,-477 1969,-477 1969,-441 2103,-441 2103,-477"/>
<text text-anchor="middle" x="2036" y="-455.4" font-family="Times Roman,serif" font-size="14.00">Feedback::States</text>
</g>
<!-- Feedback&#45;&gt;Comment -->
<g id="edge40" class="edge"><title>Feedback&#45;&gt;Comment</title>
<path fill="none" stroke="black" d="M767.482,-77.373C781.053,-65.0951 799.076,-48.7884 812.623,-36.5314"/>
</g>
<!-- Feedback&#45;&gt;Trackback -->
<g id="edge92" class="edge"><title>Feedback&#45;&gt;Trackback</title>
<path fill="none" stroke="black" d="M728.518,-77.373C714.947,-65.0951 696.924,-48.7884 683.377,-36.5314"/>
</g>
<!-- NotificationMailer -->
<g id="node15" class="node"><title>NotificationMailer</title>
<polygon fill="none" stroke="black" points="2291,-373 2155,-373 2155,-337 2291,-337 2291,-373"/>
<text text-anchor="middle" x="2223" y="-351.4" font-family="Times Roman,serif" font-size="14.00">NotificationMailer</text>
</g>
<!-- PageCache -->
<g id="node17" class="node"><title>PageCache</title>
<polygon fill="none" stroke="black" points="2401,-373 2309,-373 2309,-337 2401,-337 2401,-373"/>
<text text-anchor="middle" x="2355" y="-351.4" font-family="Times Roman,serif" font-size="14.00">PageCache</text>
</g>
<!-- PostType -->
<g id="node19" class="node"><title>PostType</title>
<ellipse fill="none" stroke="black" cx="427" cy="-355" rx="53.9477" ry="18.3848"/>
<text text-anchor="middle" x="427" y="-351.4" font-family="Times Roman,serif" font-size="14.00">PostType</text>
</g>
<!-- Profile -->
<g id="node20" class="node"><title>Profile</title>
<ellipse fill="none" stroke="black" cx="939" cy="-263" rx="41.9273" ry="18.3848"/>
<text text-anchor="middle" x="939" y="-259.4" font-family="Times Roman,serif" font-size="14.00">Profile</text>
</g>
<!-- Redirect&#45;&gt;Redirection -->
<g id="edge72" class="edge"><title>Redirect&#45;&gt;Redirection</title>
<path fill="none" stroke="#3be3a9" d="M287,-236.073C287,-229.449 287,-222.332 287,-215.63"/>
<ellipse fill="none" stroke="#3be3a9" cx="287" cy="-240.213" rx="4" ry="4"/>
<polygon fill="#3be3a9" stroke="#3be3a9" points="287,-215.57 291.5,-205.57 287,-210.57 287,-205.57 287,-205.57 287,-205.57 287,-210.57 282.5,-205.57 287,-215.57 287,-215.57"/>
</g>
<!-- Right -->
<g id="node24" class="node"><title>Right</title>
<ellipse fill="none" stroke="black" cx="851" cy="-355" rx="36.977" ry="18.3848"/>
<text text-anchor="middle" x="851" y="-351.4" font-family="Times Roman,serif" font-size="14.00">Right</text>
</g>
<!-- Right&#45;&gt;Profile -->
<g id="edge80" class="edge"><title>Right&#45;&gt;Profile</title>
<path fill="none" stroke="#882c43" d="M873.775,-330.762C882.839,-321.154 893.382,-310.028 903,-300 906.877,-295.957 911.007,-291.683 915.035,-287.532"/>
<polygon fill="#882c43" stroke="#882c43" points="873.727,-330.813 863.594,-335.005 870.298,-334.452 866.869,-338.091 866.869,-338.091 866.869,-338.091 870.298,-334.452 870.144,-341.177 873.727,-330.813 873.727,-330.813"/>
<polygon fill="#882c43" stroke="#882c43" points="915.127,-287.437 925.325,-283.405 918.613,-283.852 922.099,-280.268 922.099,-280.268 922.099,-280.268 918.613,-283.852 918.873,-277.131 915.127,-287.437 915.127,-287.437"/>
</g>
<!-- Sidebar -->
<g id="node25" class="node"><title>Sidebar</title>
<ellipse fill="none" stroke="black" cx="992" cy="-355" rx="48.0833" ry="18.3848"/>
<text text-anchor="middle" x="992" y="-351.4" font-family="Times Roman,serif" font-size="14.00">Sidebar</text>
</g>
<!-- TextFilter -->
<g id="node27" class="node"><title>TextFilter</title>
<ellipse fill="none" stroke="black" cx="1153" cy="-355" rx="56.7776" ry="18.3848"/>
<text text-anchor="middle" x="1153" y="-351.4" font-family="Times Roman,serif" font-size="14.00">TextFilter</text>
</g>
<!-- Theme -->
<g id="node28" class="node"><title>Theme</title>
<polygon fill="none" stroke="black" points="2483,-373 2419,-373 2419,-337 2483,-337 2483,-373"/>
<text text-anchor="middle" x="2451" y="-351.4" font-family="Times Roman,serif" font-size="14.00">Theme</text>
</g>
<!-- User&#45;&gt;Article -->
<g id="edge100" class="edge"><title>User&#45;&gt;Article</title>
<path fill="none" stroke="#e70e03" d="M673.039,-236.694C670.948,-229.786 668.685,-222.307 666.564,-215.299"/>
<ellipse fill="none" stroke="#e70e03" cx="674.274" cy="-240.774" rx="4.00001" ry="4.00001"/>
<polygon fill="#e70e03" stroke="#e70e03" points="666.493,-215.063 667.903,-204.188 665.044,-210.277 663.596,-205.491 663.596,-205.491 663.596,-205.491 665.044,-210.277 659.289,-206.795 666.493,-215.063 666.493,-215.063"/>
</g>
<!-- User&#45;&gt;Content -->
<g id="edge98" class="edge"><title>User&#45;&gt;Content</title>
<path fill="none" stroke="#abd90a" d="M637.808,-269.186C602.995,-275.161 558.077,-285.45 547,-300 541.318,-307.463 540.431,-317.281 541.498,-326.555"/>
<polygon fill="#abd90a" stroke="#abd90a" points="637.913,-269.169 648.511,-271.983 642.846,-268.356 647.78,-267.543 647.78,-267.543 647.78,-267.543 642.846,-268.356 647.048,-263.103 637.913,-269.169 637.913,-269.169"/>
<polygon fill="#abd90a" stroke="#abd90a" points="541.545,-326.808 538.958,-337.464 542.464,-331.723 543.382,-336.638 543.382,-336.638 543.382,-336.638 542.464,-331.723 547.805,-335.811 541.545,-326.808 541.545,-326.808"/>
<text text-anchor="middle" x="601" y="-305.4" font-family="Times Roman,serif" font-size="14.00">notify_contents</text>
</g>
<!-- User&#45;&gt;Notification -->
<g id="edge96" class="edge"><title>User&#45;&gt;Notification</title>
<path fill="none" stroke="#b57df3" d="M708.309,-243.233C722.18,-233.193 739.127,-220.927 753.648,-210.416"/>
<ellipse fill="none" stroke="#b57df3" cx="704.735" cy="-245.821" rx="4.00002" ry="4.00002"/>
<polygon fill="#b57df3" stroke="#b57df3" points="753.776,-210.324 764.515,-208.106 757.827,-207.392 761.877,-204.461 761.877,-204.461 761.877,-204.461 757.827,-207.392 759.238,-200.815 753.776,-210.324 753.776,-210.324"/>
</g>
<!-- WebNotifier -->
<g id="node32" class="node"><title>WebNotifier</title>
<polygon fill="none" stroke="black" points="1934,-373 1836,-373 1836,-337 1934,-337 1934,-373"/>
<text text-anchor="middle" x="1885" y="-351.4" font-family="Times Roman,serif" font-size="14.00">WebNotifier</text>
</g>
<!-- ActiveRecord::Base -->
<g id="node46" class="node"><title>ActiveRecord::Base</title>
<ellipse fill="none" stroke="black" cx="748" cy="-459" rx="104.151" ry="18.3848"/>
<text text-anchor="middle" x="748" y="-455.4" font-family="Times Roman,serif" font-size="14.00">ActiveRecord::Base</text>
</g>
<!-- ActiveRecord::Base&#45;&gt;Blog -->
<g id="edge28" class="edge"><title>ActiveRecord::Base&#45;&gt;Blog</title>
<path fill="none" stroke="black" d="M714.429,-441.257C692.482,-430.622 662.826,-418.027 635,-412 574.699,-398.94 137.689,-415.881 80,-394 67.7068,-389.337 56.2955,-380.041 47.796,-371.695"/>
</g>
<!-- ActiveRecord::Base&#45;&gt;Categorization -->
<g id="edge32" class="edge"><title>ActiveRecord::Base&#45;&gt;Categorization</title>
<path fill="none" stroke="black" d="M714.399,-441.394C692.44,-430.813 662.782,-418.227 635,-412 576.02,-398.78 94,-415.444 94,-355 94,-355 94,-355 94,-95 94,-68.2537 117.707,-48.4761 139.932,-35.8115"/>
</g>
<!-- ActiveRecord::Base&#45;&gt;Category -->
<g id="edge38" class="edge"><title>ActiveRecord::Base&#45;&gt;Category</title>
<path fill="none" stroke="black" d="M714.383,-441.463C692.418,-430.91 662.759,-418.329 635,-412 580.161,-399.497 132,-411.247 132,-355 132,-355 132,-355 132,-187 132,-158.964 149.301,-130.713 162.683,-113.056"/>
</g>
<!-- ActiveRecord::Base&#45;&gt;Content -->
<g id="edge52" class="edge"><title>ActiveRecord::Base&#45;&gt;Content</title>
<path fill="none" stroke="black" d="M714.412,-441.358C676.458,-421.422 615.286,-389.292 579.229,-370.353"/>
</g>
<!-- ActiveRecord::Base&#45;&gt;Notification -->
<g id="edge58" class="edge"><title>ActiveRecord::Base&#45;&gt;Notification</title>
<path fill="none" stroke="black" d="M754.78,-440.382C766.151,-409.972 789.353,-351.474 805,-336 818.861,-322.292 834.415,-334.371 845,-318 869.378,-280.297 830.306,-230.849 804.958,-204.813"/>
</g>
<!-- ActiveRecord::Base&#45;&gt;Ping -->
<g id="edge66" class="edge"><title>ActiveRecord::Base&#45;&gt;Ping</title>
<path fill="none" stroke="black" d="M836.452,-449.166C977.591,-432.261 1238,-395.574 1238,-355 1238,-355 1238,-355 1238,-187 1238,-152.076 1204.77,-123.952 1181.14,-108.371"/>
</g>
<!-- ActiveRecord::Base&#45;&gt;PostType -->
<g id="edge68" class="edge"><title>ActiveRecord::Base&#45;&gt;PostType</title>
<path fill="none" stroke="black" d="M710.059,-441.68C688.359,-432.165 660.469,-420.588 635,-412 571.872,-390.713 554.125,-392.066 490,-374 482.633,-371.924 474.806,-369.634 467.266,-367.383"/>
</g>
<!-- ActiveRecord::Base&#45;&gt;Profile -->
<g id="edge70" class="edge"><title>ActiveRecord::Base&#45;&gt;Profile</title>
<path fill="none" stroke="black" d="M794.329,-442.426C826.991,-428.628 869.626,-406.039 897,-374 920.289,-346.743 931.322,-305.259 936.001,-281.48"/>
</g>
<!-- ActiveRecord::Base&#45;&gt;Redirect -->
<g id="edge74" class="edge"><title>ActiveRecord::Base&#45;&gt;Redirect</title>
<path fill="none" stroke="black" d="M712.69,-441.574C690.81,-431.472 661.85,-419.337 635,-412 517.678,-379.942 467.571,-437.759 364,-374 328.449,-352.115 305.11,-307 294.188,-281.539"/>
</g>
<!-- ActiveRecord::Base&#45;&gt;Redirection -->
<g id="edge76" class="edge"><title>ActiveRecord::Base&#45;&gt;Redirection</title>
<path fill="none" stroke="black" d="M713.843,-441.427C691.911,-431 662.484,-418.571 635,-412 498.279,-379.314 443.158,-443.558 321,-374 270.201,-345.074 249.661,-335.887 227,-282 220.453,-266.432 220.337,-259.519 227,-244 233.972,-227.761 248.095,-213.968 260.888,-204.02"/>
</g>
<!-- ActiveRecord::Base&#45;&gt;Resource -->
<g id="edge78" class="edge"><title>ActiveRecord::Base&#45;&gt;Resource</title>
<path fill="none" stroke="black" d="M839.669,-450.211C990.867,-434.463 1276,-398.94 1276,-355 1276,-355 1276,-355 1276,-187 1276,-161.55 1273.69,-132.224 1271.93,-113.654"/>
</g>
<!-- ActiveRecord::Base&#45;&gt;Right -->
<g id="edge82" class="edge"><title>ActiveRecord::Base&#45;&gt;Right</title>
<path fill="none" stroke="black" d="M766.414,-440.407C785.741,-420.893 815.848,-390.493 834.446,-371.715"/>
</g>
<!-- ActiveRecord::Base&#45;&gt;Sidebar -->
<g id="edge84" class="edge"><title>ActiveRecord::Base&#45;&gt;Sidebar</title>
<path fill="none" stroke="black" d="M802.214,-443.071C839.08,-431.416 888.504,-414.16 930,-394 943.382,-387.498 957.483,-378.793 968.85,-371.257"/>
</g>
<!-- ActiveRecord::Base&#45;&gt;Tag -->
<g id="edge86" class="edge"><title>ActiveRecord::Base&#45;&gt;Tag</title>
<path fill="none" stroke="black" d="M833.334,-448.296C928.129,-433.962 1068,-404.434 1068,-355 1068,-355 1068,-355 1068,-187 1068,-161.604 1068,-132.265 1068,-113.678"/>
</g>
<!-- ActiveRecord::Base&#45;&gt;TextFilter -->
<g id="edge88" class="edge"><title>ActiveRecord::Base&#45;&gt;TextFilter</title>
<path fill="none" stroke="black" d="M836.853,-449.33C905.333,-440.074 1001.59,-423.1 1082,-394 1097.74,-388.305 1114.18,-379.477 1127.28,-371.66"/>
</g>
<!-- ActiveRecord::Base&#45;&gt;Trigger -->
<g id="edge94" class="edge"><title>ActiveRecord::Base&#45;&gt;Trigger</title>
<path fill="none" stroke="black" d="M713.868,-441.322C691.945,-430.855 662.52,-418.42 635,-412 584.308,-400.175 170,-407.053 170,-355 170,-355 170,-355 170,-187 170,-168.989 278.436,-127.622 335.619,-107.059"/>
</g>
<!-- ActiveRecord::Base&#45;&gt;User -->
<g id="edge102" class="edge"><title>ActiveRecord::Base&#45;&gt;User</title>
<path fill="none" stroke="black" d="M752.127,-440.382C759.865,-403.521 774.52,-322.834 760,-300 749.679,-283.769 730.156,-274.537 713.101,-269.353"/>
</g>
<!-- ActionController::Caching::Sweeper -->
<g id="node48" class="node"><title>ActionController::Caching::Sweeper</title>
<ellipse fill="none" stroke="black" cx="1357" cy="-459" rx="185.969" ry="18.3848"/>
<text text-anchor="middle" x="1357" y="-455.4" font-family="Times Roman,serif" font-size="14.00">ActionController::Caching::Sweeper</text>
</g>
<!-- ActionController::Caching::Sweeper&#45;&gt;BlogSweeper -->
<g id="edge30" class="edge"><title>ActionController::Caching::Sweeper&#45;&gt;BlogSweeper</title>
<path fill="none" stroke="black" d="M1357,-440.407C1357,-421.36 1357,-391.943 1357,-373.084"/>
</g>
<!-- ActiveRecord::Observer -->
<g id="node61" class="node"><title>ActiveRecord::Observer</title>
<ellipse fill="none" stroke="black" cx="1825" cy="-459" rx="125.865" ry="18.3848"/>
<text text-anchor="middle" x="1825" y="-455.4" font-family="Times Roman,serif" font-size="14.00">ActiveRecord::Observer</text>
</g>
<!-- ActiveRecord::Observer&#45;&gt;EmailNotifier -->
<g id="edge54" class="edge"><title>ActiveRecord::Observer&#45;&gt;EmailNotifier</title>
<path fill="none" stroke="black" d="M1814.45,-440.407C1803.65,-421.36 1786.96,-391.943 1776.26,-373.084"/>
</g>
<!-- ActiveRecord::Observer&#45;&gt;WebNotifier -->
<g id="edge104" class="edge"><title>ActiveRecord::Observer&#45;&gt;WebNotifier</title>
<path fill="none" stroke="black" d="M1835.73,-440.407C1846.72,-421.36 1863.69,-391.943 1874.57,-373.084"/>
</g>
<!-- ActionMailer::Base -->
<g id="node65" class="node"><title>ActionMailer::Base</title>
<ellipse fill="none" stroke="black" cx="2223" cy="-459" rx="101.823" ry="18.3848"/>
<text text-anchor="middle" x="2223" y="-455.4" font-family="Times Roman,serif" font-size="14.00">ActionMailer::Base</text>
</g>
<!-- ActionMailer::Base&#45;&gt;NotificationMailer -->
<g id="edge60" class="edge"><title>ActionMailer::Base&#45;&gt;NotificationMailer</title>
<path fill="none" stroke="black" d="M2223,-440.407C2223,-421.36 2223,-391.943 2223,-373.084"/>
</g>
<!-- Object -->
<g id="node68" class="node"><title>Object</title>
<ellipse fill="none" stroke="black" cx="2419" cy="-459" rx="43.1335" ry="18.3848"/>
<text text-anchor="middle" x="2419" y="-455.4" font-family="Times Roman,serif" font-size="14.00">Object</text>
</g>
<!-- Object&#45;&gt;PageCache -->
<g id="edge64" class="edge"><title>Object&#45;&gt;PageCache</title>
<path fill="none" stroke="black" d="M2407.85,-440.885C2396.18,-421.912 2377.94,-392.282 2366.23,-373.257"/>
</g>
<!-- Object&#45;&gt;Theme -->
<g id="edge90" class="edge"><title>Object&#45;&gt;Theme</title>
<path fill="none" stroke="black" d="M2424.72,-440.407C2430.58,-421.36 2439.63,-391.943 2445.44,-373.084"/>
</g>
</g>
</svg>
